HIERARCHY
ROOT Root
{
  OFFSET 6.90105 11.8871 -0.957331
  CHANNELS 6 Xposition Yposition Zposition Zrotation Xrotation Yrotation
  JOINT Spine
  {
    OFFSET 5.3114 0 0
    CHANNELS 3 Zrotation Xrotation Yrotation
    JOINT Spine1
    {
      OFFSET 2.79004 0 0
      CHANNELS 3 Zrotation Xrotation Yrotation
      JOINT Neck
      {
        OFFSET 1.43377 0 0
        CHANNELS 3 Zrotation Xrotation Yrotation
        JOINT Head
        {
          OFFSET 1.86043 0 0
          CHANNELS 3 Zrotation Xrotation Yrotation
          End Site
          {
            OFFSET 0 0 0
          }
        }
      }
      JOINT LeftArm
      {
        OFFSET 0.0387506 0 2.55754
        CHANNELS 3 Zrotation Xrotation Yrotation
        JOINT LeftForeArm
        {
          OFFSET 4.24845 0 0
          CHANNELS 3 Zrotation Xrotation Yrotation
          JOINT LeftHand
          {
            OFFSET 4.01008 0 0
            CHANNELS 3 Zrotation Xrotation Yrotation
            End Site
            {
              OFFSET 0 0 0
            }
          }
        }
      }
      JOINT RightArm
      {
        OFFSET 0.0387506 0 -2.55754
        CHANNELS 3 Zrotation Xrotation Yrotation
        JOINT RightForeArm
        {
          OFFSET -4.24845 0 0
          CHANNELS 3 Zrotation Xrotation Yrotation
          JOINT RightHand
          {
            OFFSET -4.01009 0 0
            CHANNELS 3 Zrotation Xrotation Yrotation
            End Site
            {
              OFFSET 0 0 0
            }
          }
        }
      }
    }
  }
  JOINT LeftUpLeg
  {
    OFFSET -1.23318 0 2.05692
    CHANNELS 3 Zrotation Xrotation Yrotation
    JOINT LeftLeg
    {
      OFFSET 5.46397 0 0
      CHANNELS 3 Zrotation Xrotation Yrotation
      JOINT LeftFoot
      {
        OFFSET 4.68898 0 0
        CHANNELS 3 Zrotation Xrotation Yrotation
        End Site
        {
          OFFSET 0 0 0
        }
      }
    }
  }
  JOINT RightUpLeg
  {
    OFFSET -1.24454 0 -2.05007
    CHANNELS 3 Zrotation Xrotation Yrotation
    JOINT RightLeg
    {
      OFFSET -5.46397 0 0
      CHANNELS 3 Zrotation Xrotation Yrotation
      JOINT RightFoot
      {
        OFFSET -4.68901 0 0
        CHANNELS 3 Zrotation Xrotation Yrotation
        End Site
        {
          OFFSET 0 0 0
        }
      }
    }
  }
}
MOTION
Frames: 20
Frame Time: 0.0083333
0.0000 0.0000 0.0000 0.0000 90.0000 90.0000 1.6819 7.0275 0.3355 7.8751 1.4274 0.2541 -12.5111 0.7638 3.4915 33.3885 -7.1345 2.9205 9.7047 -163.1062 -25.2983 32.0371 18.3623 2.4996 -1.1823 174.3231 -12.1814 156.2305 -163.4204 -2.5242 94.3764 41.6422 32.0819 -2.3601 173.9199 -25.5481 -35.7088 -205.6984 12.0515 -33.1606 -1.1979 -0.7252 23.6317 -168.3631 -16.8046 169.9671 123.0935 -2.8060 -25.5106 -1.0713 -0.6450 2.3595 176.8491 15.6840
0.0000 0.0000 0.0000 0.0000 90.0000 90.0000 2.0916 6.8689 1.6945 7.9812 1.0878 0.5538 -16.1503 2.0533 4.5634 42.5093 -10.2152 4.2510 9.8117 -166.1691 -20.4594 29.9369 16.8414 2.6397 -0.7400 174.4555 -11.1879 101.3247 -164.3395 2.1625 93.8673 40.7803 32.9632 -2.9863 173.6395 -31.1011 -35.1917 -177.5852 14.1079 -33.0526 -1.4126 -1.2252 22.7721 -140.6444 -15.2848 171.4371 190.3965 -0.0996 -24.6314 -1.2307 -1.1175 2.4356 176.4411 15.0626
0.0000 0.0000 0.0000 0.0000 90.0000 90.0000 1.8021 6.9123 0.8944 7.7980 1.3499 0.2954 -16.3103 2.1373 5.0122 39.9662 -10.5011 5.3619 11.9701 -164.4994 -22.0363 36.3748 19.7303 5.4303 -1.2380 174.2617 -14.4649 36.5429 -164.3297 0.6261 93.2651 41.3054 32.2220 -3.4254 173.4866 -34.0964 -35.8116 -177.7162 16.3454 -35.9295 -1.4064 -1.2412 23.5612 -120.0978 -13.6943 169.5710 170.1437 -0.5198 -26.3919 -1.2390 -1.0999 2.4078 206.5466 14.7355
0.0000 0.0000 0.0000 0.0000 90.0000 90.0000 0.0448 5.7373 0.5042 7.9176 1.8320 0.1773 -13.2601 0.3702 3.6220 28.4169 -6.9179 3.8617 14.3687 -161.7243 -27.3144 44.7497 24.0247 7.9221 -1.7620 174.1035 -16.5681 -33.9138 -165.5006 -6.6265 86.8837 40.4699 27.4722 -3.3027 173.5172 -32.1515 -33.0585 -177.4150 13.8750 -38.0463 -1.2607 -0.8206 25.7099 -136.7471 -12.2837 166.7027 92.5444 -2.5082 -28.7867 -1.1280 -0.6864 6.1214 169.7449 11.6999
0.0000 0.0000 0.0000 0.0000 90.0000 90.0000 -0.7105 4.4603 0.4973 7.6574 2.0578 0.1641 -13.3388 -1.4735 2.0355 22.7802 -3.3340 1.7103 13.3400 -160.6499 -29.7059 44.3264 24.3135 7.0926 -1.4913 174.2967 -15.5604 -102.8579 -166.0104 -10.1967 74.7490 36.2822 21.1993 -2.6705 173.5433 -25.4303 -31.0773 -206.8834 11.4686 -38.8576 -1.2330 -0.7473 28.3867 -94.5488 -11.5360 167.5308 2.0554 -3.7665 -30.2071 -1.1426 -0.5875 9.4885 170.6107 9.8867
0.0000 0.0000 0.0000 0.0000 90.0000 90.0000 -1.8458 3.7628 0.0831 7.1742 1.9670 0.0324 -12.6603 -2.4532 1.3529 17.1064 -1.1622 1.0751 11.3631 -162.3678 -33.3396 49.2331 26.3913 9.0458 -1.9756 174.0729 -17.6686 -156.2787 -166.1158 -12.6659 66.4608 33.5637 16.7695 -1.9869 173.6575 -18.2474 -27.9890 -199.5697 6.7376 -38.8921 -1.1794 -0.5910 27.3202 -69.4226 -9.9815 164.7972 -25.2701 -5.7359 -27.9931 -1.1687 -0.4127 11.9124 142.3347 7.6973
0.0000 0.0000 0.0000 0.0000 90.0000 90.0000 -3.1913 2.8857 -2.4130 6.8420 2.3577 -0.6463 -9.6511 -2.5210 2.1063 8.4783 -1.8357 3.1406 14.3830 -159.0388 -38.6431 54.3114 28.9390 10.6376 -3.2937 173.4704 -23.5242 -187.2981 -165.4406 -17.8170 64.4976 33.5990 14.9940 -1.7539 173.7970 -14.7403 -25.1623 -163.5510 7.4685 -40.7356 -1.0167 -0.1864 28.6955 -90.3824 -9.2333 159.2344 -56.9875 -7.5480 -36.5222 -0.9867 -0.0932 13.7038 63.4860 6.5482
0.0000 0.0000 0.0000 0.0000 90.0000 90.0000 -3.7192 1.9600 -4.1655 6.6150 2.6044 -1.0937 -7.6772 -2.6268 2.5376 4.2712 -2.0375 4.5630 13.7565 -156.6769 -41.0386 59.3121 31.2321 12.5613 -4.1432 173.0670 -27.0932 -191.8239 -164.2571 -20.9406 61.3306 32.6654 13.0931 -1.2257 173.9920 -8.8316 -21.0325 -106.9343 7.4952 -40.3388 -0.8819 0.0838 29.7094 -90.8949 -8.3086 154.2419 -85.0016 -9.3637 -40.7046 -0.8344 0.1270 13.1271 9.4520 4.9870
0.0000 0.0000 0.0000 0.0000 90.0000 90.0000 -3.3062 1.1456 -5.2567 6.4862 2.7984 -1.3532 -6.7807 -2.8020 2.7454 4.6556 -2.0446 5.3729 10.1851 -155.6166 -40.9516 63.1042 32.8753 14.2147 -4.4755 172.8804 -27.8941 -160.8284 -163.1854 -21.4566 57.8392 31.1700 11.4773 -0.6773 174.1403 -3.0878 -16.0415 -37.9307 7.1820 -38.2864 -0.7986 0.2115 29.8346 -79.5037 -7.0023 149.8783 -100.9321 -11.0137 -41.5443 -0.7298 0.2273 10.5300 -19.7636 3.3782
0.0000 0.0000 0.0000 0.0000 90.0000 90.0000 -1.5179 1.3410 -4.6914 6.4684 2.6622 -1.1762 -8.4441 -2.8124 3.2712 12.4390 -2.4969 6.4752 0.7503 -155.4023 -36.0959 65.0474 33.2887 15.6304 -3.9378 173.1072 -25.5686 -164.9979 -161.4799 -19.0782 50.6320 27.7292 8.6515 0.1900 174.2566 4.5115 -11.7717 64.7707 6.4041 -34.7274 -0.8183 0.0224 28.6176 -64.4904 -5.6985 146.5112 -97.6646 -11.8183 -38.2827 -0.6865 0.1708 4.1974 5.5625 3.3578
0.0000 0.0000 0.0000 0.0000 90.0000 90.0000 -1.4428 -0.4511 -4.0281 6.5127 2.6002 -0.9698 -9.8830 -3.7355 2.0059 15.8062 0.3246 4.7214 -1.7654 -155.2746 -34.1585 74.4935 36.8762 20.4722 -4.0036 173.0315 -26.8710 -163.5743 -162.7218 -19.7256 48.3798 26.4569 8.0902 0.7678 174.4065 10.1151 -4.6392 126.1814 3.4478 -30.3259 -0.8507 -0.1051 28.0125 21.5731 -2.6867 144.4617 -138.5788 -13.9606 -32.3529 -0.6705 0.0498 1.2678 18.8368 -0.6339
0.0000 0.0000 0.0000 0.0000 90.0000 90.0000 -0.2447 -1.2668 -3.2313 6.9134 2.4057 -0.7748 -10.8613 -4.2497 0.6589 22.1884 1.9487 2.0731 -3.7787 -156.8546 -31.1890 76.9187 37.5665 22.1179 -3.8630 173.0546 -26.6581 -162.5410 -163.0595 -16.6823 51.5002 27.3937 10.0883 0.1758 174.1518 5.5284 -0.1592 146.3808 2.6436 -28.6503 -0.9425 -0.2849 28.1093 73.1765 -0.1782 142.3156 -120.0494 -13.8697 -27.1737 -0.7330 -0.1427 -3.5979 28.0705 -3.1231
0.0000 0.0000 0.0000 0.0000 90.0000 90.0000 0.7494 -2.9449 -4.7866 7.4643 2.8244 -1.1631 -7.3869 -4.3594 -0.4856 19.0671 3.1829 0.2038 -1.1923 -156.1470 -29.6429 83.9685 40.9807 24.9139 -4.7798 172.7070 -31.0928 -155.6312 -160.6362 -15.1030 58.0345 30.4193 12.7200 -0.8325 173.9653 -1.1856 2.5918 95.9810 6.4924 -30.5551 -0.7939 0.0415 31.6862 113.4095 1.9253 138.6896 -138.4842 -14.5298 -23.8754 -0.7043 0.0181 -5.6789 11.7996 -6.7637
0.0000 0.0000 0.0000 0.0000 90.0000 90.0000 0.7067 -4.6045 -4.4264 8.1344 2.9656 -1.0347 -5.0147 -5.4808 -2.6371 14.2557 6.5147 -3.6498 0.8421 -157.2081 -28.4649 85.2132 41.9231 24.9258 -4.7878 172.7705 -31.0564 -153.9023 -159.5911 -14.7546 61.4593 32.1367 13.8040 -1.5137 173.8751 -6.8933 4.3237 72.0993 5.9683 -30.9001 -0.7261 0.2873 34.5665 133.6193 2.1021 139.8783 -165.8202 -14.6274 -20.0701 -0.7208 0.1411 -4.1860 -30.3185 -9.8498
0.0000 0.0000 0.0000 0.0000 90.0000 90.0000 0.5980 -5.4958 -3.4593 8.2436 2.6785 -0.7778 -7.5697 -6.1318 -3.9779 13.3573 9.2555 -6.3931 5.1894 -160.7121 -27.2187 82.4985 40.6835 24.0915 -4.1714 173.1029 -29.7967 -180.3327 -159.2969 -12.0850 62.0610 32.0304 14.6765 -1.7932 173.8099 -9.4105 3.5678 -1.6676 4.8632 -31.2884 -0.8623 0.0230 36.4028 230.0255 1.9934 145.1456 -202.4586 -13.6856 -16.4232 -0.9147 -0.1510 -2.5219 -1.5653 -10.4488
0.0000 0.0000 0.0000 0.0000 90.0000 90.0000 -0.6140 -5.1129 -2.7606 8.2196 2.3474 -0.6036 -7.3759 -5.6126 -3.9003 8.8653 9.3233 -6.6448 11.9150 -163.9991 -30.3044 83.0053 40.7740 24.3722 -4.4331 172.9873 -31.4375 -170.4038 -159.5032 -13.1977 69.1836 35.0935 17.8672 -2.1450 173.8297 -13.4222 0.4288 -49.9580 2.6774 -32.9522 -0.9058 0.0520 34.3836 230.1493 1.3245 147.4271 -171.9900 -12.7174 -14.8153 -1.0188 -0.1729 0.6254 -6.5864 -9.4646
0.0000 0.0000 0.0000 0.0000 90.0000 90.0000 0.2227 -4.4469 -2.8171 9.3070 2.7781 -0.5886 -5.4096 -4.5358 -2.8917 -0.4064 7.4755 -5.1638 13.5248 -166.7528 -36.4441 76.5584 38.5687 20.6066 -5.1898 172.8429 -35.6504 -118.1158 -165.7267 -19.4753 77.0232 38.8961 20.7930 -2.8847 174.0178 -20.0415 -4.1184 -123.5031 3.9989 -37.1732 -0.8620 0.3002 35.2829 164.3793 -0.3757 150.8989 -171.7356 -10.2431 -24.5311 -0.9390 -0.0252 4.6297 5.7534 -4.3930
0.0000 0.0000 0.0000 0.0000 90.0000 90.0000 -4.0586 -3.9577 -1.1930 7.9076 2.6041 -0.1547 -3.6405 -5.4111 -3.5935 -4.4055 8.7708 -6.2127 29.1846 -158.4304 -42.4528 75.6515 38.6827 19.4254 -4.3521 173.0905 -30.0602 -90.6762 -159.6547 -28.7352 76.9664 39.6283 19.8464 -1.7952 173.9473 -13.5716 -8.3762 -118.3686 1.1819 -37.9783 -0.8287 0.5088 32.1166 107.1988 -1.9288 180.8487 -201.8145 -10.1499 -29.5146 -0.9149 0.1623 8.9396 6.4326 -3.1428
0.0000 0.0000 0.0000 0.0000 90.0000 90.0000 -6.8521 -2.7511 1.2164 6.8235 2.1018 0.4846 -3.8365 -4.8695 -2.8951 -2.4464 7.4811 -4.7800 37.8973 -152.4228 -43.6306 70.6163 36.6597 16.9773 -2.9851 173.5580 -21.4086 -50.4881 -154.7470 -36.0774 74.8985 39.0122 18.5649 -0.5537 173.9689 -5.8367 -17.5379 -129.4530 0.5417 -38.0390 -0.8584 0.3942 30.2720 9.1220 -6.7354 150.3285 -196.2741 -8.1474 -31.1594 -0.9100 0.1596 13.4221 39.8964 -0.3866
0.0000 0.0000 0.0000 0.0000 90.0000 90.0000 -8.1750 -0.6845 3.8895 5.9210 1.5318 1.1893 -6.3315 -3.8612 -1.6060 5.6761 4.9135 -2.4801 38.6180 -147.9327 -41.5827 64.0660 33.5872 14.3528 -1.4103 174.1546 -13.0655 -4.0429 -150.6967 -38.8532 69.7366 36.6603 16.3909 0.9323 174.0888 4.2091 -24.2957 -83.6356 -0.7536 -36.1762 -0.9435 0.0544 27.8093 -56.2893 -10.1101 125.7466 -162.6068 -7.4873 -29.2996 -0.9177 0.0549 13.4923 106.3518 2.6041
